<svg width="33" height="35" viewBox="0 0 33 35" fill="none" xmlns="http://www.w3.org/2000/svg">
<path d="M28.7638 4.7039C28.0552 3.84668 27.2139 3.16668 26.2879 2.70274C25.3619 2.23879 24.3694 2 23.367 2C22.3647 2 21.3722 2.23879 20.4462 2.70274C19.5202 3.16668 18.6788 3.84668 17.9702 4.7039L16.4996 6.48209L15.029 4.7039C13.5977 2.9732 11.6564 2.0009 9.63223 2.0009C7.60804 2.0009 5.66675 2.9732 4.23543 4.7039C2.80411 6.4346 2 8.78193 2 11.2295C2 13.6771 2.80411 16.0244 4.23543 17.7551L5.70602 19.5333L16.4996 32.5846L27.2932 19.5333L28.7638 17.7551C29.4728 16.8983 30.0351 15.881 30.4188 14.7613C30.8025 13.6416 31 12.4415 31 11.2295C31 10.0175 30.8025 8.81739 30.4188 7.6977C30.0351 6.57802 29.4728 5.56071 28.7638 4.7039Z" stroke="#0D5873" stroke-width="4" stroke-linecap="round" stroke-linejoin="round"/>
</svg>
